<?xml version="1.0" encoding="UTF-8" standalone="no"?><!DOCTYPE svg PUBLIC "-//W3C//DTD SVG 1.1//EN" "http://www.w3.org/Graphics/SVG/1.1/DTD/svg11.dtd"><svg width="100%" height="100%" viewBox="0 0 4705 2413" version="1.1" xmlns="http://www.w3.org/2000/svg" xmlns:xlink="http://www.w3.org/1999/xlink" xml:space="preserve" xmlns:serif="http://www.serif.com/" style="fill-rule:evenodd;clip-rule:evenodd;stroke-linejoin:round;stroke-miterlimit:2;"><path d="M948.033,200.058c0,16.984 -2.845,28.309 -8.541,33.971c-45.55,41.896 -75.159,81.529 -88.825,118.9c-11.388,31.709 -17.079,80.396 -17.079,146.075c-0,11.325 -6.834,24.346 -20.5,39.067c-13.667,13.587 -26.192,20.383 -37.58,20.383c-20.495,0 -38.15,-7.925 -52.954,-23.779c-13.662,-15.854 -20.496,-33.971 -20.496,-54.354c0,-61.15 -17.65,-110.975 -52.954,-149.475c-35.304,-39.634 -82.562,-59.45 -141.779,-59.45c-44.413,-0 -82.558,18.121 -114.446,54.354c-31.887,35.104 -47.829,75.304 -47.829,120.6c-0,64.546 24.483,104.179 73.45,118.9c14.804,4.529 62.633,6.792 143.487,6.792c85.409,-0 168.538,36.237 249.392,108.708c81.992,72.475 122.988,150.042 122.988,232.704c-0,133.621 -39.288,242.329 -117.863,326.125c-78.575,83.796 -185.05,125.692 -319.429,125.692c-26.192,-0 -66.046,-3.963 -119.571,-11.888c-52.383,-9.058 -92.242,-13.587 -119.571,-13.587c-40.996,-0 -69.466,5.658 -85.408,16.983c-21.638,14.721 -31.888,41.9 -30.75,81.533c1.142,26.042 8.542,39.067 22.208,39.067c10.25,0 23.346,-7.929 39.292,-23.783c15.942,-14.721 30.175,-22.079 42.7,-22.079c47.833,-0 71.746,22.645 71.746,67.941c-0,27.179 -14.238,53.788 -42.709,79.834c-28.466,27.175 -56.937,40.766 -85.404,40.766c-44.416,0 -85.979,-15.287 -124.7,-45.862c-43.27,-32.838 -64.908,-70.775 -64.908,-113.804c0,-54.355 25.625,-130.788 76.867,-229.305c52.383,-99.649 78.575,-163.629 78.575,-191.937c-0,-13.592 -4.554,-31.142 -13.667,-52.658c-9.108,-22.646 -13.662,-40.2 -13.662,-52.654c-0,-15.855 4.554,-30.575 13.666,-44.163c9.109,-14.721 21.067,-22.083 35.871,-22.083c48.967,-0 81.992,32.841 99.075,98.516c30.746,120.034 46.688,181.746 47.825,185.146c33.025,65.675 92.242,98.517 177.65,98.517c50.108,-0 92.242,-18.683 126.404,-56.054c34.167,-37.367 51.246,-80.963 51.246,-130.788c0,-45.296 -14.804,-90.025 -44.412,-134.187c-34.163,-47.559 -72.88,-71.342 -116.155,-71.342c-13.666,0 -31.887,7.929 -54.662,23.783c-22.775,14.721 -40.996,22.08 -54.658,22.08c-63.775,-0 -128.684,-43.03 -194.734,-129.092c-62.633,-82.663 -93.95,-156.833 -93.95,-222.513c0,-121.162 40.429,-216.85 121.279,-287.054c75.163,-65.679 174.805,-98.516 298.93,-98.516c74.02,-0 145.195,13.583 213.525,40.762c14.804,-1.129 34.162,-11.887 58.075,-32.271c25.054,-20.383 46.12,-30.575 63.204,-30.575c14.804,0 30.175,6.229 46.121,18.684c17.079,11.325 25.62,23.779 25.62,37.37Zm303.692,78.675c-19.7,6.571 -39.946,30.121 -60.737,70.646c-20.796,40.529 -39.4,60.792 -55.813,60.792c-15.325,-0 -35.021,-12.046 -59.1,-36.146c-3.283,-16.429 -18.604,-32.858 -45.962,-49.292c-26.267,-17.525 -39.396,-32.858 -39.396,-46c-0,-16.433 13.679,-37.241 41.037,-62.437c28.454,-26.288 43.775,-49.292 45.963,-69.004c10.946,-2.192 18.604,-3.288 22.983,-3.288c31.738,0 62.379,15.334 91.929,46.004c25.171,25.192 44.867,54.767 59.096,88.725Zm44.321,892.155c-4.375,15.333 -23.529,42.716 -57.454,82.15c-27.359,31.762 -38.304,62.433 -32.829,92.008c-15.325,15.333 -30.646,23 -45.967,23c-8.754,-0 -45.417,-20.809 -109.983,-62.434c-63.475,-41.62 -97.4,-66.266 -101.78,-73.933c36.117,-66.817 54.171,-162.658 54.171,-287.529l0,-157.729c-6.562,-70.1 -23.529,-114.463 -50.887,-133.084c-0,-23 14.775,-53.125 44.325,-90.366c30.641,-37.242 43.225,-69.554 37.754,-96.938c15.321,-9.858 30.642,-14.787 45.962,-14.787c22.984,-0 52.534,15.337 88.646,46.004c39.396,33.958 69.492,53.125 90.288,57.508c7.658,10.954 11.491,23 11.491,36.146c0,10.954 -3.833,23 -11.491,36.146c-26.267,44.908 -39.4,137.467 -39.4,277.671c-0,148.962 25.72,237.687 77.154,266.167Zm47.321,333.433c-16.3,5.479 -33.054,25.104 -50.263,58.875c-17.208,33.775 -32.608,50.658 -46.191,50.658c-12.68,0 -28.984,-10.037 -48.909,-30.121c-2.716,-13.691 -15.396,-27.383 -38.037,-41.075c-21.738,-14.604 -32.604,-27.383 -32.604,-38.337c-0,-13.692 11.32,-31.033 33.962,-52.029c23.546,-21.904 36.229,-41.075 38.038,-57.504c9.058,-1.825 15.395,-2.738 19.02,-2.738c26.267,0 51.625,12.779 76.08,38.338c20.829,20.991 37.133,45.637 48.904,73.933Zm36.683,743.462c-3.625,12.78 -19.475,35.6 -47.55,68.459c-22.642,26.471 -31.7,52.029 -27.171,76.675c-12.679,12.779 -25.358,19.171 -38.037,19.171c-7.246,-0 -37.588,-17.346 -91.025,-52.03c-52.529,-34.687 -80.604,-55.225 -84.229,-61.612c29.887,-55.683 44.833,-135.55 44.833,-239.608l-0,-131.442c-5.433,-58.417 -19.471,-95.383 -42.117,-110.9c0,-19.171 12.229,-44.271 36.684,-75.308c25.358,-31.034 35.775,-57.959 31.245,-80.78c12.68,-8.216 25.359,-12.325 38.038,-12.325c19.021,0 43.475,12.78 73.362,38.338c32.605,28.296 57.513,44.271 74.721,47.921c6.338,9.129 9.509,19.171 9.509,30.125c-0,9.125 -3.171,19.166 -9.509,30.121c-21.737,37.425 -32.608,114.554 -32.608,231.391c-0,124.138 21.287,198.075 63.854,221.804Zm1044.04,-1175.03c-0,3.621 -15.855,24.154 -47.563,61.6c-30.487,36.233 -43.292,77.904 -38.412,125.013c-14.634,6.037 -28.046,9.058 -40.242,9.058c-20.733,-0 -66.463,-28.383 -137.192,-85.154c-70.729,-56.767 -104.875,-85.154 -102.437,-85.154c-23.167,-0 -43.9,21.741 -62.192,65.225c-14.633,37.445 -20.729,68.85 -18.292,94.212c-15.854,9.663 -32.316,14.496 -49.387,14.496c-30.488,-0 -65.242,-21.138 -104.267,-63.413c-42.683,-47.108 -75.608,-73.679 -98.779,-79.72l-10.975,-27.175l-62.192,43.483c-13.412,10.871 -20.121,36.837 -20.121,77.904c0,32.613 -9.754,48.921 -29.266,48.921c-41.463,-0 -85.975,-19.325 -133.534,-57.979c-60.975,-49.521 -100.608,-78.509 -118.899,-86.963l-1.83,-10.871c0,9.663 10.975,-18.725 32.925,-85.154c23.171,-67.641 34.759,-128.637 34.759,-182.991c-0,-30.196 -1.83,-81.53 -5.488,-154.005c-3.658,-65.22 -4.879,-115.954 -3.658,-152.187c-3.659,-4.833 -18.292,-16.913 -43.904,-36.238c-20.73,-14.491 -31.096,-28.383 -31.096,-41.67c-0,-10.871 13.416,-33.821 40.241,-68.846c28.05,-35.029 39.634,-69.454 34.759,-103.275c12.191,-18.117 33.533,-27.175 64.021,-27.175c46.341,-0 84.145,9.666 113.412,28.987c10.975,7.25 29.267,24.763 54.875,52.542c18.292,19.325 36.583,28.987 54.875,28.987c32.929,0 58.538,-20.529 76.829,-61.6c18.292,-41.066 35.363,-61.6 51.217,-61.6c35.367,0 72.558,10.267 111.583,30.8c40.242,19.325 68.9,43.484 85.971,72.471c17.075,-4.833 34.754,-21.741 53.05,-50.729c18.292,-28.987 36.583,-45.896 54.875,-50.729c55.61,22.037 111.097,44.383 166.459,67.037c82.925,35.025 124.387,62.809 124.387,83.342c-0,15.7 -7.321,36.838 -21.954,63.413c-14.633,25.362 -22.559,44.691 -23.779,57.975c-8.534,62.808 -12.805,141.925 -12.805,237.345c0,14.496 1.83,80.321 5.488,197.484c0,18.121 9.758,37.446 29.267,57.979c19.512,20.533 29.271,38.65 29.271,54.354Zm-281.7,-558.033c-21.95,-32.613 -56.096,-48.917 -102.438,-48.917c-9.754,14.496 -16.462,35.633 -20.121,63.413c-4.879,35.029 -9.146,57.979 -12.804,68.85c10.975,33.816 17.683,71.262 20.121,112.329c2.442,28.987 3.05,67.037 1.829,114.141c-2.437,65.225 -3.658,102.667 -3.658,112.334c-0,32.608 9.146,59.183 27.437,79.716c18.292,20.534 27.442,35.03 27.442,43.484c-0,4.829 -0.613,10.266 -1.829,16.304c9.754,-3.621 28.046,-26.571 54.875,-68.846c-15.854,-99.046 -23.779,-168.496 -23.779,-208.354c-0,-106.292 10.975,-201.113 32.925,-284.454Zm-364.013,297.133c0,-30.196 -1.221,-75.492 -3.658,-135.883c-2.442,-60.392 -3.659,-105.688 -3.659,-135.884c0,-10.87 -9.758,-24.158 -29.266,-39.858c-18.296,-15.704 -33.538,-23.554 -45.734,-23.554c-23.166,-0 -34.754,22.346 -34.754,67.037c0,10.871 0.609,25.363 1.829,43.484c1.221,16.908 1.83,27.779 1.83,32.608c-0,30.2 -1.83,75.492 -5.488,135.888c-2.437,59.183 -3.658,103.875 -3.658,134.07c-0,7.246 0.608,18.721 1.829,34.425l-0,32.613c-0,26.571 12.804,46.5 38.412,59.787c26.83,13.288 40.246,25.367 40.246,36.238c28.046,-61.604 42.071,-141.925 42.071,-240.971Zm1245.73,149.617c-18.162,14.946 -50.208,30.425 -96.141,46.441c-49.138,17.084 -82.254,32.03 -99.346,44.842c-29.908,22.421 -44.863,53.383 -44.863,92.883c-19.229,4.271 -34.183,6.409 -44.866,6.409c-36.321,-0 -81.717,-18.15 -136.196,-54.45c-59.821,-39.504 -104.154,-61.925 -132.996,-67.263c-6.408,-9.608 -9.612,-19.754 -9.612,-30.429c-0,-11.746 5.341,-29.358 16.02,-52.85c11.755,-23.487 17.63,-41.637 17.63,-54.45l-3.209,-238.621c0,-22.421 -4.271,-54.983 -12.816,-97.687c-7.48,-43.775 -11.217,-75.271 -11.217,-94.488c-0,-30.962 21.367,-53.916 64.091,-68.866c35.096,-11.694 70.351,-22.905 105.755,-33.63c20.295,-10.675 37.925,-32.562 52.879,-65.662c12.816,-27.758 30.441,-41.638 52.875,-41.638c17.091,0 56.083,20.288 116.971,60.859c60.887,39.5 107.358,61.387 139.404,65.658c8.546,12.813 12.816,28.829 12.816,48.046c0.001,13.879 -3.204,34.162 -9.612,60.854c-5.342,26.692 -8.012,46.979 -8.012,60.858l-0,209.792c2.137,88.617 12.283,156.413 30.445,203.392Zm-230.737,-43.242c-8.546,-32.029 -12.817,-73.667 -12.817,-124.917c0,-22.42 1.067,-54.983 3.204,-97.687c2.134,-43.775 3.205,-76.338 3.205,-97.692c-0,-37.366 -3.205,-74.204 -9.613,-110.504c-19.229,-19.217 -42.729,-28.825 -70.504,-28.825c-4.275,59.788 -6.409,105.696 -6.409,137.729c0.001,17.079 2.134,42.171 6.409,75.267c4.271,32.029 6.408,56.054 6.408,72.067c0,13.879 -2.671,35.233 -8.012,64.058c-4.271,27.762 -6.409,49.112 -6.409,64.062c0,16.013 2.138,29.892 6.409,41.638c28.841,9.608 48.071,14.412 57.683,14.412c10.683,0 20.833,-3.204 30.446,-9.608Zm1118.77,134.288l-0,11.6c-46.871,36.095 -76.813,61.879 -89.834,77.35c-27.341,32.229 -38.408,68.325 -33.2,108.287c-9.112,18.05 -20.179,25.138 -33.2,21.271l-19.525,-0c-19.529,-0 -59.241,-24.492 -119.129,-73.479c-58.587,-48.988 -87.879,-80.571 -87.879,-94.754c-0,-15.471 6.508,-36.742 19.529,-63.813c13.017,-27.071 19.529,-48.987 19.529,-65.746c0,-15.471 -2.604,-38.029 -7.812,-67.679c-5.209,-29.65 -7.813,-52.212 -7.813,-67.679c0,-85.088 9.767,-208.842 29.296,-371.275c-19.216,-15.233 -38.749,-30.062 -58.588,-44.475c-24.737,-15.471 -47.52,-22.563 -68.354,-21.271l-9.762,1.933c-6.508,14.18 -9.767,32.871 -9.767,56.075c0,28.363 4.559,55.434 13.671,81.217c-7.812,24.496 -11.717,52.213 -11.717,83.15c0,21.917 2.605,56.079 7.813,102.488c6.508,45.12 9.762,78.637 9.762,100.554c0,16.758 -5.208,40.608 -15.62,71.546c-9.113,29.65 -13.671,50.279 -13.671,61.879c-0,16.758 15.62,30.941 46.87,42.541c32.546,11.605 48.821,24.496 48.821,38.675c0,12.892 -20.179,39.321 -60.541,79.284c-39.059,39.962 -55.329,84.437 -48.821,133.425c-10.417,11.604 -26.038,17.404 -46.871,17.404c-3.904,-0 -13.017,-1.933 -27.337,-5.8c-13.021,-3.867 -20.834,-5.8 -23.438,-5.8c-10.417,-15.471 -46.867,-39.967 -109.362,-73.483c-50.775,-28.363 -76.163,-58.013 -76.163,-88.95c0,-14.18 6.508,-29.009 19.529,-44.475c14.321,-16.759 22.134,-29.65 23.434,-38.675c9.116,-50.275 13.67,-169.521 13.67,-357.738c0,-54.146 -3.904,-108.287 -11.716,-162.433c-3.905,-5.154 -21.484,-16.113 -52.729,-32.871c-24.738,-12.892 -37.105,-26.429 -37.105,-40.608c0,2.575 3.909,-7.738 11.717,-30.942c35.154,-9.025 55.983,-30.292 62.496,-63.813l15.621,-85.083c13.021,-28.362 44.916,-42.542 95.691,-42.542c35.155,0 70.955,15.471 107.409,46.409c37.758,30.941 64.446,46.408 80.071,46.408c22.133,0 37.104,-25.137 44.916,-75.417c15.625,-15.466 31.896,-23.2 48.821,-23.2c24.738,0 68.354,18.692 130.846,56.075c62.492,37.388 115.871,55.434 160.137,54.146c13.021,12.892 19.53,27.071 19.53,42.542c-0.001,14.179 -5.859,34.808 -17.575,61.879c-10.417,27.071 -15.626,48.988 -15.626,65.746c0.001,33.517 -3.254,83.796 -9.762,150.829c-6.512,67.038 -9.767,117.313 -9.767,150.829c0,87.663 5.859,147.609 17.58,179.838c3.904,12.891 20.179,27.716 48.82,44.475c24.738,15.471 37.104,33.516 37.104,54.146Zm237.034,-907.355c-0,14.975 -6.913,29.375 -20.738,43.2c-17.279,18.434 -27.645,31.105 -31.104,38.017c-62.208,142.854 -118.083,214.279 -167.621,214.279c-6.912,0 -15.554,-3.454 -25.92,-10.366c-10.371,-8.063 -15.555,-15.555 -15.555,-22.467c0,-8.063 10.371,-31.679 31.105,-70.85c21.891,-39.167 32.833,-62.783 32.833,-70.85c-0,-17.279 -12.671,-34.558 -38.017,-51.842c-25.341,-18.433 -38.017,-37.441 -38.017,-57.025c0,-17.283 11.521,-38.016 34.563,-62.208c24.192,-24.196 36.287,-49.542 36.287,-76.038c0,-12.67 16.13,-19.008 48.388,-19.008c23.042,0 49.537,18.433 79.492,55.296c36.862,43.779 61.633,69.125 74.304,76.037l-0,13.825Zm554.996,235.667c-0,20.821 -23.709,49.446 -71.125,85.879c-47.417,35.129 -67.834,70.913 -61.25,107.346c-19.75,15.613 -39.5,23.421 -59.25,23.421c-25.042,-0 -55.959,-13.663 -92.834,-40.988c-43.458,-29.925 -74.416,-47.491 -92.875,-52.695c-9.208,22.116 -13.833,42.287 -13.833,60.504c-0,39.033 27,67.008 81,83.925c52.708,11.708 105.375,23.421 158.042,35.133c60.583,16.913 96.791,44.238 108.666,81.971c7.917,26.025 10.542,65.058 7.917,117.108c-3.958,92.384 -5.958,131.417 -5.958,117.104c-0,49.446 7.25,89.13 21.75,119.059c-25.042,31.225 -59.917,52.696 -104.709,64.408c-59.25,15.613 -94.166,26.671 -104.708,33.179c-35.542,20.817 -62.542,59.854 -81,117.104c-6.583,20.821 -27,31.23 -61.208,31.23c-51.375,-0 -100.75,-18.217 -148.167,-54.65c-47.425,-37.734 -80.35,-56.6 -98.788,-56.6c-18.441,-0 -35.562,9.108 -51.366,27.325c2.637,22.12 23.708,40.987 63.216,56.6c40.83,14.312 61.242,31.229 61.242,50.745c0,23.421 -9.879,41.638 -29.633,54.65c-18.438,14.313 -39.509,21.467 -63.217,21.467c-110.625,0 -165.942,-65.708 -165.942,-197.125c0,-36.433 29.634,-77.421 88.9,-122.962c59.263,-46.842 88.238,-91.084 86.921,-132.721c26.342,-14.313 50.046,-21.467 71.117,-21.467c28.967,0 67.175,16.263 114.592,48.792c48.708,31.229 88.208,46.191 118.5,44.891l31.625,-1.95c-7.917,-11.712 -15.125,-45.541 -21.709,-101.491c-3.958,-42.942 -21.083,-70.263 -51.375,-81.975c-65.875,-20.821 -131.708,-41.638 -197.558,-62.459c-43.463,-14.312 -70.458,-36.429 -80.996,-66.358c-10.537,-31.229 -15.804,-101.492 -15.804,-210.788c-0,-45.541 -11.854,-81.975 -35.558,-109.3c13.17,-35.133 43.462,-57.25 90.87,-66.362c41.504,-6.405 82.991,-12.911 124.463,-19.517c43.458,-13.012 68.5,-42.287 75.083,-87.829c2.625,-15.612 20.375,-23.417 53.334,-23.417c18.416,0 61.208,16.263 128.375,48.792c63.25,31.229 132.375,43.588 207.458,37.084c10.542,14.312 15.792,28.625 15.792,42.937Zm-252,1176.33c-0,15.046 -17,35.738 -50.959,62.067c-33.958,25.396 -48.583,51.254 -43.875,77.588c-14.166,11.287 -28.291,16.929 -42.458,16.929c-17.917,-0 -40.083,-9.875 -66.5,-29.625c-31.167,-21.63 -53.333,-34.325 -66.542,-38.088c-6.583,15.988 -9.916,30.567 -9.916,43.733c-0,28.213 19.375,48.43 58.041,60.659c37.75,8.462 75.5,16.925 113.209,25.391c43.416,12.225 69.375,31.975 77.875,59.246c5.625,18.813 7.541,47.025 5.625,84.642c-2.834,66.775 -4.209,94.987 -4.209,84.642c0,35.737 5.167,64.42 15.542,86.05c-17.917,22.57 -42.917,38.091 -75,46.554c-42.458,11.283 -67.458,19.279 -75,23.979c-25.5,15.05 -44.833,43.262 -58.042,84.642c-4.708,15.05 -19.333,22.57 -43.875,22.57c-36.796,0 -72.179,-13.166 -106.146,-39.5c-33.966,-27.27 -57.554,-40.908 -70.762,-40.908c-13.208,0 -25.475,6.583 -36.796,19.75c1.883,15.988 16.983,29.625 45.288,40.908c29.25,10.346 43.875,22.571 43.875,36.68c-0,16.929 -7.08,30.095 -21.23,39.5c-13.212,10.345 -28.308,15.516 -45.291,15.516c-79.254,0 -118.884,-47.491 -118.884,-142.479c0,-26.333 21.23,-55.958 63.688,-88.871c42.458,-33.858 63.217,-65.833 62.275,-95.929c18.871,-10.342 35.854,-15.517 50.95,-15.517c20.754,0 48.117,11.759 82.083,35.267c34.909,22.571 63.2,33.388 84.909,32.446l22.666,-1.408c-5.666,-8.467 -10.875,-32.917 -15.583,-73.359c-2.833,-31.033 -15.083,-50.783 -36.792,-59.246l-141.529,-45.141c-31.137,-10.346 -50.479,-26.334 -58.029,-47.963c-7.546,-22.571 -11.321,-73.358 -11.321,-152.354c0,-32.917 -8.492,-59.25 -25.475,-79c9.433,-25.392 31.138,-41.379 65.104,-47.962c29.733,-4.629 59.454,-9.33 89.163,-14.105c31.133,-9.408 49.062,-30.566 53.779,-63.483c1.887,-11.283 14.642,-16.929 38.225,-16.929c13.208,-0 43.875,11.758 92,35.271c45.25,22.571 94.792,31.504 148.583,26.8c7.542,10.346 11.334,20.691 11.334,31.037Zm-2568.1,4.521c-0,4.909 -17.68,22.592 -53.034,53.042c-39.283,32.412 -61.379,53.037 -66.287,61.879c-27.5,-4.912 -52.05,-24.554 -73.659,-58.933c-16.606,-28.347 -33.796,-56.347 -51.558,-83.984l-11.783,13.263c-0,25.537 2.454,62.862 7.366,111.975c4.909,49.112 7.363,85.946 7.363,110.5c-0,14.733 -2.454,36.833 -7.363,66.304c-4.912,29.467 -7.366,51.567 -7.366,66.3c-0,30.45 32.9,45.675 98.696,45.675c26.516,0 41.741,-2.458 45.666,-7.367c4.913,-4.912 7.367,-21.12 7.367,-48.62c-0,-8.842 1.967,-19.646 5.892,-32.417c4.912,-13.75 10.804,-20.625 17.679,-20.625c19.641,-0 36.825,6.875 51.558,20.625c14.729,12.771 22.096,28.975 22.096,48.621c-0,33.396 -12.767,63.846 -38.3,91.35l-70.708,58.933c-23.571,22.592 -33.392,45.675 -29.463,69.25c-18.658,13.75 -38.3,20.625 -58.925,20.625c-14.729,0 -63.342,-16.696 -145.837,-50.092c-82.496,-33.4 -127.18,-55.008 -134.055,-64.829c22.588,-56.971 33.884,-135.55 33.884,-235.737c-0,-120.817 -2.946,-200.871 -8.838,-240.159c-0.983,-7.858 -6.875,-17.679 -17.679,-29.466c-9.821,-12.771 -14.729,-23.084 -14.729,-30.942c-0,-4.912 0.979,-10.312 2.946,-16.208l159.096,-61.879c62.85,-25.538 108.025,-58.446 135.525,-98.717c26.516,2.946 65.308,37.325 116.375,103.137c52.05,65.809 78.075,111.975 78.075,138.496Zm468.016,-44.175c0,17.467 -11.066,38.15 -33.196,62.054c-22.133,23.9 -33.2,43.667 -33.2,59.296c0,9.192 2.305,18.388 6.917,27.579c0,13.792 -17.521,19.305 -52.562,16.546c-15.675,-13.787 -31.813,-20.683 -48.413,-20.683c-13.833,-0 -20.75,4.137 -20.75,12.412c0,21.142 0.925,64.813 2.767,131.005c0.925,54.237 0.925,97.904 -0,131c-0.921,47.804 -4.15,91.475 -9.684,131.004l74.696,16.55c35.963,8.271 54.409,19.762 55.329,34.47c0.921,18.388 -10.141,40.913 -33.195,67.571c-23.055,26.663 -34.584,48.267 -34.584,64.813l0,23.446c-1.841,3.675 -13.371,5.512 -34.579,5.512c-14.754,0 -57.633,-17.925 -128.642,-53.779c-70.083,-36.771 -106.508,-59.296 -109.275,-67.571c23.055,-105.721 34.584,-222.475 34.584,-350.262c-0,-45.046 -1.384,-90.092 -4.15,-135.138c-3.692,-2.758 -20.288,-8.275 -49.796,-16.55c-17.521,-5.512 -26.283,-18.846 -26.283,-39.987c-0,-43.209 11.529,-64.813 34.579,-64.813c18.446,0 29.512,-0.921 33.2,-2.758c10.141,-5.517 15.216,-19.767 15.216,-42.75c0,-17.467 -6.458,-40.909 -19.366,-70.329c-11.988,-30.338 -17.984,-53.78 -17.984,-70.325c0,-9.196 11.53,-13.792 34.584,-13.792c11.062,-0 23.975,4.596 38.729,13.792c15.675,9.191 27.204,13.787 34.579,13.787l47.029,-53.779c32.275,-35.854 60.404,-53.779 84.379,-53.779c11.067,-0 27.663,10.112 49.796,30.337c-3.687,18.384 -18.904,45.967 -45.646,82.738c-23.975,33.096 -35.966,61.596 -35.966,85.496c-0,30.337 1.383,49.646 4.15,57.916c5.533,19.309 19.829,28.963 42.883,28.963c21.209,-0 40.571,-14.25 58.092,-42.75c18.446,-29.417 32.279,-44.129 41.5,-44.129c11.066,-0 21.208,5.516 30.429,16.55c9.221,10.112 13.833,20.225 13.833,30.337Zm564.021,275.946c0,6.429 -2.775,13.779 -8.325,22.05c-20.342,9.187 -35.133,35.371 -44.383,78.554c-9.246,37.667 -28.663,56.504 -58.25,56.504c-24.042,0 -52.709,-15.621 -85.996,-46.858c-33.288,-31.238 -59.638,-46.858 -79.058,-46.858c-3.696,-0 -11.096,0.92 -22.192,2.758c-2.771,5.512 -4.621,11.942 -5.546,19.292c0,5.512 0.463,13.325 1.388,23.429c0.925,10.108 1.387,17 1.387,20.675c0,22.05 -9.708,33.075 -29.129,33.075c-32.363,-0 -68.425,-14.7 -108.183,-44.104c-51.78,-38.588 -84.609,-60.638 -98.475,-66.15c-2.775,-8.267 -4.163,-13.321 -4.163,-15.159c0,-10.104 6.013,-22.508 18.029,-37.208c12.021,-14.7 18.496,-26.646 19.421,-35.833c3.696,-33.075 5.546,-91.875 5.546,-176.4c-0,-67.071 -3.233,-129.546 -9.708,-187.429c-9.018,-8.076 -18.268,-15.889 -27.738,-23.43c-11.096,-11.025 -16.646,-21.591 -16.646,-31.695c0,2.754 3.238,-5.513 9.709,-24.809c23.116,-7.35 37.45,-32.612 42.995,-75.796c5.55,-38.587 19.884,-57.883 43,-57.883l24.963,4.138c7.4,12.862 33.75,31.237 79.058,55.125c38.838,20.212 58.254,39.966 58.254,59.258c0,0.921 -6.933,16.996 -20.804,48.233c-4.625,10.109 -6.933,31.7 -6.933,64.775c-0,24.804 1.383,62.017 4.158,111.629c3.7,49.613 5.55,79.471 5.55,89.58c0,45.02 -5.55,85.445 -16.646,121.275c20.342,13.783 41.146,20.675 62.417,20.675c12.942,-0 25.888,-3.217 38.833,-9.65c-5.545,-29.4 -8.32,-62.934 -8.32,-100.605c-0,-19.291 0.925,-47.775 2.775,-85.441c1.845,-38.592 2.77,-67.992 2.77,-88.204c0,-27.563 -1.387,-52.83 -4.158,-75.796c-29.592,-11.025 -44.383,-28.942 -44.383,-53.75c-0,-17.454 12.021,-38.125 36.058,-62.013c24.967,-23.891 37.45,-44.562 37.45,-62.016c-0.019,-5.627 -0.956,-11.213 -2.775,-16.538c14.796,-16.537 29.129,-24.808 43,-24.808c12.017,-0 30.975,11.946 56.863,35.833c30.516,28.479 51.32,45.017 62.416,49.613c27.738,11.941 40.221,22.508 37.446,31.695c-1.846,11.946 -7.858,24.346 -18.029,37.209c-10.171,12.862 -15.717,22.512 -16.642,28.941c-3.7,28.484 -5.55,96.93 -5.55,205.346c0,96.467 2.313,150.217 6.934,161.242c1.85,4.592 10.175,14.7 24.966,30.317c11.096,11.945 16.646,24.35 16.646,37.212Zm516.017,-372.104c-0,19.579 -14.7,44.537 -44.104,74.875c-28.421,29.367 -42.634,60.196 -42.634,92.496c0,17.616 -13.229,26.425 -39.691,26.425c-31.367,-0 -50.967,-14.679 -58.809,-44.046c-6.858,-30.338 -17.15,-45.508 -30.871,-45.508c-14.704,-0 -22.054,20.062 -22.054,60.191c0,13.704 1.471,34.259 4.413,61.663c3.921,26.425 5.879,46 5.879,58.725c-0,102.771 -9.313,164.921 -27.933,186.454c6.862,14.679 30.875,26.425 72.037,35.233c37.242,7.829 55.867,23 55.867,45.513c-0,24.471 -12.254,42.087 -36.754,52.854c-32.342,13.704 -50.475,22.512 -54.396,26.425c-2.942,2.937 -6.859,21.533 -11.763,55.792c-4.9,26.425 -16.658,39.637 -35.283,39.637c-17.642,0 -54.883,-17.129 -111.729,-51.383c-38.845,-23.273 -77.56,-46.764 -116.142,-70.471c-1.958,-4.896 -2.937,-10.767 -2.937,-17.617c-0,-8.808 5.879,-19.087 17.641,-30.833c11.759,-12.725 18.621,-21.042 20.579,-24.958c12.742,-26.425 19.113,-92.492 19.113,-198.196c-0,-107.667 -2.942,-171.775 -8.821,-192.329c-1.958,-7.83 -13.721,-19.084 -35.283,-33.767c-21.563,-15.658 -32.342,-29.363 -32.342,-41.108c0,-8.809 5.392,-18.596 16.171,-29.363c11.762,-10.767 24.504,-39.15 38.225,-85.15c10.779,-35.237 25.971,-52.854 45.571,-52.854c72.529,-0 129.375,31.808 170.537,95.429c18.621,-1.958 33.325,-16.637 44.104,-44.046c10.784,-28.383 23.034,-42.575 36.755,-42.575c18.62,0 50.475,11.259 95.558,33.767c46.062,22.512 69.096,42.087 69.096,58.725Zm479.991,210.583c0.959,23.071 -22.537,47.579 -70.491,73.529c-75.763,42.292 -119.879,68.725 -132.346,79.296c-48.913,37.488 -73.371,81.7 -73.371,132.642c16.304,10.575 38.842,16.821 67.617,18.742l71.925,2.883c5.754,-5.767 10.55,-26.429 14.387,-61.992c1.917,-28.837 13.425,-43.254 34.525,-43.254c36.442,-0.962 55.146,20.183 56.104,63.438c0.959,61.512 -37.404,123.987 -115.087,187.425l-0,10.091c-0,34.604 -12.946,52.384 -38.838,53.346c-23.979,0 -81.041,-18.742 -171.191,-56.229c-89.192,-38.446 -133.788,-64.396 -133.788,-77.854c0,-10.571 5.275,-23.067 15.825,-37.484c10.55,-15.379 16.304,-27.391 17.263,-36.045c2.879,-18.263 3.837,-61.513 2.879,-129.755l-0,-128.316c-0,-54.788 -3.838,-97.079 -11.508,-126.875c-0.959,-5.767 -5.755,-13.454 -14.388,-23.067c-7.671,-10.575 -11.508,-20.183 -11.508,-28.833c-0,-4.809 0.958,-8.171 2.879,-10.096c11.508,-14.417 37.879,-26.913 79.121,-37.483c58.5,-16.342 97.821,-28.834 117.962,-37.488c45.075,-20.183 79.121,-49.017 102.138,-86.504c23.016,-0 60.9,45.658 113.646,136.967c49.87,86.504 75.283,140.812 76.245,162.916Zm-207.154,30.279c0,-16.341 -4.796,-37.966 -14.387,-64.879c-12.467,-30.758 -25.892,-50.942 -40.279,-60.554l-0,125.433c-0,18.263 5.754,32.679 17.262,43.25c20.142,-12.496 32.608,-26.912 37.404,-43.25Zm-2696.92,340.53c-12.358,14.225 -48.541,29.779 -108.55,46.666c-47.658,13.338 -71.487,36.892 -71.487,70.671c-0,21.333 -0.442,33.779 -1.321,37.333c-3.533,10.667 -13.242,16.005 -29.125,16.005c-5.296,-0 -12.796,-0.892 -22.504,-2.667c-9.708,-0.892 -16.767,-1.338 -21.179,-1.338c-17.654,0 -26.479,12.892 -26.479,38.671c-0,23.113 10.591,47.559 31.77,73.334c21.184,25.779 31.771,44.445 31.771,56.004c0,12.446 -6.616,22.666 -19.854,30.666c-13.237,8 -26.475,12 -39.717,12c-32.65,0 -65.304,-13.333 -97.958,-40c-17.016,15.331 -34.227,30.443 -51.629,45.334c-21.179,17.779 -41.038,26.671 -59.571,26.671c-12.354,-0 -24.267,-5.334 -35.742,-16.005c-11.47,-10.666 -17.208,-22.22 -17.208,-34.666c0,-2.667 1.325,-6.667 3.971,-12c2.65,-5.334 3.971,-8.888 3.971,-10.667c37.066,-14.225 61.779,-43.112 74.133,-86.671c7.058,-22.221 11.475,-61.779 13.238,-118.671l-10.592,-20c-7.058,1.78 -17.208,9.334 -30.446,22.667c-12.354,12.446 -22.946,18.667 -31.771,18.667c-10.591,-0 -18.975,-5.334 -25.15,-16c-7.062,-10.667 -10.591,-21.334 -10.591,-32c-0,-36.446 10.591,-65.338 31.77,-86.671c22.063,-21.333 44.125,-42.221 66.188,-62.667c-0.879,-23.112 -0.879,-53.779 -0,-92.004c0.883,-48.004 1.325,-78.671 1.325,-92.004c-0,-12.446 -0.883,-31.113 -2.646,-56c-0.883,-24.892 -1.325,-42.671 -1.325,-53.338c0,-20.446 -11.033,-38.221 -33.096,-53.333c-22.062,-15.112 -33.091,-30.671 -33.091,-46.671l1.32,-6.667c26.475,-7.108 41.921,-33.333 46.334,-78.666c3.529,-40.892 21.621,-61.338 54.275,-61.338c22.946,0 50.746,12 83.4,36c32.654,24.004 51.629,36.004 56.921,36.004c18.533,0 33.095,-12 43.687,-36.004c10.588,-24.887 19.413,-37.333 26.475,-37.333c22.946,-0 53.833,13.779 92.667,41.333c42.358,30.225 74.571,47.559 96.633,52.004c7.946,9.78 11.917,19.113 11.917,28c-0,7.113 -2.65,17.334 -7.946,30.667c-5.292,13.333 -7.942,23.559 -7.942,30.671l-1.325,169.338c-0.879,90.67 7.946,168.895 26.479,234.675Zm-191.95,-392.013c-25.595,-22.225 -49.42,-33.337 -71.483,-33.337c-6.179,-0 -11.033,0.445 -14.562,1.333c7.058,93.337 10.587,216.008 10.587,368.017c0,21.333 15.004,32 45.013,32c7.941,-0 15.883,-1.334 23.825,-4c-0.884,-12.446 -2.646,-47.559 -5.296,-105.338c-2.646,-42.667 -3.971,-77.337 -3.971,-104.004c-0,-62.225 5.296,-113.783 15.887,-154.671Z" style="fill:#fff;fill-rule:nonzero;"/></svg>