<svg width="1129" height="579" fill="none" xmlns="http://www.w3.org/2000/svg">
  <path d="M227.528 48.014c0 4.076-.683 6.794-2.05 8.153-10.932 10.055-18.038 19.567-21.318 28.536-2.733 7.61-4.099 19.295-4.099 35.058 0 2.718-1.64 5.843-4.92 9.376-3.28 3.261-6.286 4.892-9.019 4.892-4.919 0-9.156-1.902-12.709-5.707-3.279-3.805-4.919-8.153-4.919-13.045 0-14.676-4.236-26.634-12.709-35.874-8.473-9.512-19.815-14.268-34.027-14.268-10.659 0-19.814 4.349-27.467 13.045-7.653 8.425-11.479 18.073-11.479 28.944 0 15.491 5.876 25.003 17.628 28.536 3.553 1.087 15.032 1.63 34.437 1.63 20.498 0 40.449 8.697 59.854 26.09 19.678 17.394 29.517 36.01 29.517 55.849 0 32.069-9.429 58.159-28.287 78.27-18.858 20.111-44.412 30.166-76.663 30.166-6.286 0-15.851-.951-28.697-2.853-12.572-2.174-22.138-3.261-28.697-3.261-9.839 0-16.672 1.358-20.498 4.076-5.193 3.533-7.653 10.056-7.38 19.568.274 6.25 2.05 9.376 5.33 9.376 2.46 0 5.603-1.903 9.43-5.708 3.826-3.533 7.242-5.299 10.248-5.299 11.48 0 17.219 5.435 17.219 16.306 0 6.523-3.417 12.909-10.25 19.16-6.832 6.522-13.665 9.784-20.497 9.784-10.66 0-20.635-3.669-29.928-11.007C5.193 369.926 0 360.821 0 350.494c0-13.045 6.15-31.389 18.448-55.033 12.572-23.916 18.858-39.271 18.858-46.065 0-3.262-1.093-7.474-3.28-12.638-2.186-5.435-3.279-9.648-3.279-12.637 0-3.805 1.093-7.338 3.28-10.599 2.186-3.533 5.056-5.3 8.609-5.3 11.752 0 19.678 7.882 23.778 23.644 7.379 28.808 11.205 43.619 11.478 44.435 7.926 15.762 22.138 23.644 42.636 23.644 12.026 0 22.138-4.484 30.337-13.453 8.2-8.968 12.299-19.431 12.299-31.389 0-10.871-3.553-21.606-10.659-32.205-8.199-11.414-17.491-17.122-27.877-17.122-3.28 0-7.653 1.903-13.119 5.708-5.466 3.533-9.839 5.299-13.118 5.299-15.306 0-30.884-10.327-46.736-30.982-15.032-19.839-22.548-37.64-22.548-53.403 0-29.079 9.703-52.044 29.107-68.893 18.039-15.763 41.953-23.644 71.743-23.644 17.765 0 34.847 3.26 51.246 9.783 3.553-.271 8.199-2.853 13.938-7.745 6.013-4.892 11.069-7.338 15.169-7.338 3.553 0 7.242 1.495 11.069 4.484 4.099 2.718 6.149 5.707 6.149 8.969zm72.886 18.882c-4.728 1.577-9.587 7.229-14.577 16.955-4.991 9.727-9.456 14.59-13.395 14.59-3.678 0-8.405-2.891-14.184-8.675-.788-3.943-4.465-7.886-11.031-11.83-6.304-4.206-9.455-7.886-9.455-11.04 0-3.944 3.283-8.938 9.849-14.985 6.829-6.309 10.506-11.83 11.031-16.561 2.627-.526 4.465-.789 5.516-.789 7.617 0 14.971 3.68 22.063 11.041 6.041 6.046 10.768 13.144 14.183 21.294zm10.637 214.117c-1.05 3.68-5.647 10.252-13.789 19.716-6.566 7.623-9.193 14.984-7.879 22.082-3.678 3.68-7.355 5.52-11.032 5.52-2.101 0-10.9-4.994-26.396-14.984-15.234-9.989-23.376-15.904-24.427-17.744 8.668-16.036 13.001-39.038 13.001-69.007v-37.855c-1.575-16.824-5.647-27.471-12.213-31.94 0-5.52 3.546-12.75 10.638-21.688 7.354-8.938 10.374-16.693 9.061-23.265 3.677-2.366 7.354-3.549 11.031-3.549 5.516 0 12.608 3.681 21.275 11.041 9.455 8.15 16.678 12.75 21.669 13.802 1.838 2.629 2.758 5.52 2.758 8.675 0 2.629-.92 5.52-2.758 8.675-6.304 10.778-9.456 32.992-9.456 66.641 0 35.751 6.173 57.045 18.517 63.88zm11.357 80.024c-3.912 1.315-7.933 6.025-12.063 14.13-4.13 8.106-7.826 12.158-11.086 12.158-3.043 0-6.956-2.409-11.738-7.229-.652-3.286-3.695-6.572-9.129-9.858-5.217-3.505-7.825-6.572-7.825-9.201 0-3.286 2.717-7.448 8.151-12.487 5.651-5.257 8.695-9.858 9.129-13.801 2.174-.438 3.695-.657 4.565-.657 6.304 0 12.39 3.067 18.259 9.201 4.999 5.038 8.912 10.953 11.737 17.744zm8.804 178.431c-.87 3.067-4.674 8.544-11.412 16.43-5.434 6.353-7.608 12.487-6.521 18.402-3.043 3.067-6.086 4.601-9.129 4.601-1.739 0-9.021-4.163-21.846-12.487-12.607-8.325-19.345-13.254-20.215-14.787 7.173-13.364 10.76-32.532 10.76-57.506v-31.546c-1.304-14.02-4.673-22.892-10.108-26.616 0-4.601 2.935-10.625 8.804-18.074 6.086-7.448 8.586-13.91 7.499-19.387 3.043-1.972 6.086-2.958 9.129-2.958 4.565 0 10.434 3.067 17.607 9.201 7.825 6.791 13.803 10.625 17.933 11.501 1.521 2.191 2.282 4.601 2.282 7.23 0 2.19-.761 4.6-2.282 7.229-5.217 8.982-7.826 27.493-7.826 55.534 0 29.793 5.109 47.538 15.325 53.233zM581.781 257.46c0 .869-3.805 5.797-11.415 14.784-7.317 8.696-10.39 18.697-9.219 30.003-3.512 1.449-6.731 2.174-9.658 2.174-4.976 0-15.951-6.812-32.926-20.437-16.975-13.624-25.17-20.437-24.585-20.437-5.56 0-10.536 5.218-14.926 15.654-3.512 8.987-4.975 16.524-4.39 22.611-3.805 2.319-7.756 3.479-11.853 3.479-7.317 0-15.658-5.073-25.024-15.219-10.244-11.306-18.146-17.683-23.707-19.133l-2.634-6.522-14.926 10.436c-3.219 2.609-4.829 8.841-4.829 18.697 0 7.827-2.341 11.741-7.024 11.741-9.951 0-20.634-4.638-32.048-13.915-14.634-11.885-24.146-18.842-28.536-20.871l-.439-2.609c0 2.319 2.634-4.494 7.902-20.437 5.561-16.234 8.342-30.873 8.342-43.918 0-7.247-.439-19.567-1.317-36.961-.878-15.653-1.171-27.829-.878-36.525-.878-1.16-4.39-4.059-10.537-8.697-4.975-3.478-7.463-6.812-7.463-10.001 0-2.609 3.22-8.117 9.658-16.523 6.732-8.407 9.512-16.669 8.342-24.786 2.926-4.348 8.048-6.522 15.365-6.522 11.122 0 20.195 2.32 27.219 6.957 2.634 1.74 7.024 5.943 13.17 12.61 4.39 4.638 8.78 6.957 13.17 6.957 7.903 0 14.049-4.927 18.439-14.784 4.39-9.856 8.487-14.784 12.292-14.784 8.488 0 17.414 2.464 26.78 7.392 9.658 4.638 16.536 10.436 20.633 17.393 4.098-1.16 8.341-5.218 12.732-12.175 4.39-6.957 8.78-11.015 13.17-12.175a3875.017 3875.017 0 0139.95 16.089c19.902 8.406 29.853 15.074 29.853 20.002 0 3.768-1.757 8.841-5.269 15.219-3.512 6.087-5.414 10.726-5.707 13.914-2.048 15.074-3.073 34.062-3.073 56.963 0 3.479.439 19.277 1.317 47.396 0 4.349 2.342 8.987 7.024 13.915 4.683 4.928 7.025 9.276 7.025 13.045zm-67.608-133.928c-5.268-7.827-13.463-11.74-24.585-11.74-2.341 3.479-3.951 8.552-4.829 15.219-1.171 8.407-2.195 13.915-3.073 16.524 2.634 8.116 4.244 17.103 4.829 26.959.586 6.957.732 16.089.439 27.394-.585 15.654-.878 24.64-.878 26.96 0 7.826 2.195 14.204 6.585 19.132 4.39 4.928 6.586 8.407 6.586 10.436 0 1.159-.147 2.464-.439 3.913 2.341-.869 6.731-6.377 13.17-16.523-3.805-23.771-5.707-40.439-5.707-50.005 0-25.51 2.634-48.267 7.902-68.269zm-87.363 71.312c0-7.247-.293-18.118-.878-32.612-.586-14.494-.878-25.365-.878-32.612 0-2.609-2.342-5.798-7.024-9.566-4.391-3.769-8.049-5.653-10.976-5.653-5.56 0-8.341 5.363-8.341 16.089 0 2.609.146 6.087.439 10.436.293 4.058.439 6.667.439 7.826 0 7.248-.439 18.118-1.317 32.613-.585 14.204-.878 24.93-.878 32.177 0 1.739.146 4.493.439 8.262v7.827c0 6.377 3.073 11.16 9.219 14.349 6.439 3.189 9.659 6.088 9.659 8.697 6.731-14.785 10.097-34.062 10.097-57.833zm298.976 35.908c-4.359 3.587-12.05 7.302-23.074 11.146-11.793 4.1-19.741 7.687-23.843 10.762-7.178 5.381-10.767 12.812-10.767 22.292-4.615 1.025-8.204 1.538-10.768 1.538-8.717 0-19.612-4.356-32.687-13.068-14.357-9.481-24.997-14.862-31.919-16.143-1.538-2.306-2.307-4.741-2.307-7.303 0-2.819 1.282-7.046 3.845-12.684 2.821-5.637 4.231-9.993 4.231-13.068l-.77-57.269c0-5.381-1.025-13.196-3.076-23.445-1.795-10.506-2.692-18.065-2.692-22.677 0-7.431 5.128-12.94 15.382-16.528a969.31 969.31 0 0125.381-8.071c4.871-2.562 9.102-7.815 12.691-15.759 3.076-6.662 7.306-9.993 12.69-9.993 4.102 0 13.46 4.869 28.073 14.606 14.613 9.48 25.766 14.733 33.457 15.758 2.051 3.075 3.076 6.919 3.076 11.531 0 3.331-.769 8.199-2.307 14.605-1.282 6.406-1.923 11.275-1.923 14.606v50.35c.513 21.268 2.948 37.539 7.307 48.814zm-55.377-10.378c-2.051-7.687-3.076-17.68-3.076-29.98 0-5.381.256-13.196.769-23.445.512-10.506.769-18.321.769-23.446 0-8.968-.769-17.809-2.307-26.521-4.615-4.612-10.255-6.918-16.921-6.918-1.026 14.349-1.538 25.367-1.538 33.055 0 4.099.512 10.121 1.538 18.064 1.025 7.687 1.538 13.453 1.538 17.296 0 3.331-.641 8.456-1.923 15.374-1.025 6.663-1.538 11.787-1.538 15.375 0 3.843.513 7.174 1.538 9.993 6.922 2.306 11.537 3.459 13.844 3.459 2.564 0 5-.769 7.307-2.306zm268.504 32.229v2.784c-11.249 8.663-18.435 14.851-21.56 18.564-6.562 7.735-9.218 16.398-7.968 25.989-2.187 4.332-4.843 6.033-7.968 5.105h-4.686c-4.687 0-14.218-5.878-28.591-17.635-14.061-11.757-21.091-19.337-21.091-22.741 0-3.713 1.562-8.818 4.687-15.315 3.124-6.497 4.687-11.757 4.687-15.779 0-3.713-.625-9.127-1.875-16.243-1.25-7.116-1.875-12.531-1.875-16.243 0-20.421 2.344-50.122 7.031-89.106a420.74 420.74 0 00-14.061-10.674c-5.937-3.713-11.405-5.415-16.405-5.105l-2.343.464c-1.562 3.403-2.344 7.889-2.344 13.458 0 6.807 1.094 13.304 3.281 19.492-1.875 5.879-2.812 12.531-2.812 19.956 0 5.26.625 13.459 1.875 24.597 1.562 10.829 2.343 18.873 2.343 24.133 0 4.022-1.25 9.746-3.749 17.171-2.187 7.116-3.281 12.067-3.281 14.851 0 4.022 3.749 7.426 11.249 10.21 7.811 2.785 11.717 5.879 11.717 9.282 0 3.094-4.843 9.437-14.53 19.028-9.374 9.591-13.279 20.265-11.717 32.022-2.5 2.785-6.249 4.177-11.249 4.177-.937 0-3.124-.464-6.561-1.392-3.125-.928-5-1.392-5.625-1.392-2.5-3.713-11.248-9.592-26.247-17.636-12.186-6.807-18.279-13.923-18.279-21.348 0-3.403 1.562-6.962 4.687-10.674 3.437-4.022 5.312-7.116 5.624-9.282 2.188-12.066 3.281-40.685 3.281-85.857 0-12.995-.937-25.989-2.812-38.984-.937-1.237-5.156-3.867-12.655-7.889-5.937-3.094-8.905-6.343-8.905-9.746 0 .618.938-1.857 2.812-7.426 8.437-2.166 13.436-7.27 14.999-15.315l3.749-20.42c3.125-6.807 10.78-10.21 22.966-10.21 8.437 0 17.029 3.713 25.778 11.138 9.062 7.426 15.467 11.138 19.217 11.138 5.312 0 8.905-6.033 10.78-18.1 3.75-3.712 7.655-5.568 11.717-5.568 5.937 0 16.405 4.486 31.403 13.458 14.998 8.973 27.809 13.304 38.433 12.995 3.125 3.094 4.687 6.497 4.687 10.21 0 3.403-1.406 8.354-4.218 14.851-2.5 6.497-3.75 11.757-3.75 15.779 0 8.044-.781 20.111-2.343 36.199-1.563 16.089-2.344 28.155-2.344 36.199 0 21.039 1.406 35.426 4.219 43.161.937 3.094 4.843 6.652 11.717 10.674 5.937 3.713 8.905 8.044 8.905 12.995zm56.888-217.765c0 3.594-1.659 7.05-4.977 10.368-4.147 4.424-6.635 7.465-7.465 9.124-14.93 34.285-28.34 51.427-40.229 51.427-1.659 0-3.733-.829-6.221-2.488-2.489-1.935-3.733-3.733-3.733-5.392 0-1.935 2.489-7.603 7.465-17.004 5.254-9.4 7.88-15.068 7.88-17.004 0-4.147-3.041-8.294-9.124-12.442-6.082-4.424-9.124-8.986-9.124-13.686 0-4.148 2.765-9.124 8.295-14.93 5.806-5.807 8.709-11.89 8.709-18.249 0-3.041 3.871-4.562 11.613-4.562 5.53 0 11.889 4.424 19.078 13.271 8.847 10.507 14.792 16.59 17.833 18.249v3.318zM1129 91.398c0 4.997-5.69 11.867-17.07 20.611-11.38 8.431-16.28 17.019-14.7 25.763-4.74 3.747-9.48 5.621-14.22 5.621-6.01 0-13.43-3.279-22.28-9.837-10.43-7.182-17.86-11.398-22.29-12.647-2.21 5.308-3.32 10.149-3.32 14.521 0 9.368 6.48 16.082 19.44 20.142 12.65 2.81 25.29 5.621 37.93 8.432 14.54 4.059 23.23 10.617 26.08 19.673 1.9 6.246 2.53 15.614 1.9 28.106-.95 22.172-1.43 31.54-1.43 28.105 0 11.867 1.74 21.391 5.22 28.574-6.01 7.494-14.38 12.647-25.13 15.458-14.22 3.747-22.6 6.401-25.13 7.963-8.53 4.996-15.01 14.365-19.44 28.105-1.58 4.997-6.48 7.495-14.69 7.495-12.33 0-24.18-4.372-35.56-13.116-11.382-9.056-19.284-13.584-23.709-13.584-4.426 0-8.535 2.186-12.328 6.558.633 5.309 5.69 9.837 15.172 13.584 9.799 3.435 14.698 7.495 14.698 12.179 0 5.621-2.371 9.993-7.112 13.116-4.425 3.435-9.482 5.152-15.172 5.152-26.55 0-39.826-15.77-39.826-47.31 0-8.744 7.112-18.581 21.336-29.511 14.223-11.242 21.177-21.86 20.861-31.853 6.322-3.435 12.011-5.152 17.068-5.152 6.952 0 16.122 3.903 27.502 11.71 11.69 7.495 21.17 11.086 28.44 10.774l7.59-.468c-1.9-2.811-3.63-10.93-5.21-24.358-.95-10.306-5.06-16.863-12.33-19.674-15.81-4.997-31.61-9.993-47.414-14.99-10.431-3.435-16.91-8.743-19.439-15.926-2.529-7.495-3.793-24.358-3.793-50.589 0-10.93-2.845-19.674-8.534-26.232 3.161-8.432 10.431-13.74 21.809-15.927a6244.281 6244.281 0 0029.871-4.684c10.43-3.123 16.44-10.149 18.02-21.079.63-3.747 4.89-5.62 12.8-5.62 4.42 0 14.69 3.903 30.81 11.71 15.18 7.495 31.77 10.461 49.79 8.9 2.53 3.435 3.79 6.87 3.79 10.305zm-60.48 282.32c0 3.611-4.08 8.577-12.23 14.896-8.15 6.095-11.66 12.301-10.53 18.621-3.4 2.709-6.79 4.063-10.19 4.063-4.3 0-9.62-2.37-15.96-7.11-7.48-5.191-12.8-8.238-15.97-9.141-1.58 3.837-2.38 7.336-2.38 10.496 0 6.771 4.65 11.623 13.93 14.558 9.06 2.031 18.12 4.062 27.17 6.094 10.42 2.934 16.65 7.674 18.69 14.219 1.35 4.515 1.81 11.286 1.35 20.314-.68 16.026-1.01 22.797-1.01 20.314 0 8.577 1.24 15.461 3.73 20.652-4.3 5.417-10.3 9.142-18 11.173-10.19 2.708-16.19 4.627-18 5.755-6.12 3.612-10.76 10.383-13.93 20.314-1.13 3.612-4.64 5.417-10.53 5.417-8.831 0-17.323-3.16-25.475-9.48-8.152-6.545-13.813-9.818-16.983-9.818s-6.114 1.58-8.831 4.74c.452 3.837 4.076 7.11 10.869 9.818 7.02 2.483 10.53 5.417 10.53 8.803 0 4.063-1.699 7.223-5.095 9.48-3.171 2.483-6.794 3.724-10.87 3.724-19.021 0-28.532-11.398-28.532-34.195 0-6.32 5.095-13.43 15.285-21.329 10.19-8.126 15.172-15.8 14.946-23.023 4.529-2.482 8.605-3.724 12.228-3.724 4.981 0 11.548 2.822 19.7 8.464 8.378 5.417 15.168 8.013 20.378 7.787l5.44-.338c-1.36-2.032-2.61-7.9-3.74-17.606-.68-7.448-3.62-12.188-8.83-14.219l-33.967-10.834c-7.473-2.483-12.115-6.32-13.927-11.511-1.811-5.417-2.717-17.606-2.717-36.565 0-7.9-2.038-14.22-6.114-18.96 2.264-6.094 7.473-9.931 15.625-11.511a4430.644 4430.644 0 0021.399-3.385c7.472-2.258 11.775-7.336 12.907-15.236.453-2.708 3.514-4.063 9.174-4.063 3.17 0 10.53 2.822 22.08 8.465 10.86 5.417 22.75 7.561 35.66 6.432 1.81 2.483 2.72 4.966 2.72 7.449zm-616.344 1.085c0 1.178-4.243 5.422-12.728 12.73-9.428 7.779-14.731 12.729-15.909 14.851-6.6-1.179-12.492-5.893-17.678-14.144a572.992 572.992 0 00-12.374-20.156l-2.828 3.183c0 6.129.589 15.087 1.768 26.874 1.178 11.787 1.767 20.627 1.767 26.52 0 3.536-.589 8.84-1.767 15.913-1.179 7.072-1.768 12.376-1.768 15.912 0 7.308 7.896 10.962 23.687 10.962 6.364 0 10.018-.59 10.96-1.768 1.179-1.179 1.768-5.069 1.768-11.669 0-2.122.472-4.715 1.414-7.78 1.179-3.3 2.593-4.95 4.243-4.95 4.714 0 8.838 1.65 12.374 4.95 3.535 3.065 5.303 6.954 5.303 11.669 0 8.015-3.064 15.323-9.192 21.924l-16.97 14.144c-5.657 5.422-8.014 10.962-7.071 16.62-4.478 3.3-9.192 4.95-14.142 4.95-3.535 0-15.202-4.007-35.001-12.022-19.799-8.016-30.523-13.202-32.173-15.559 5.421-13.673 8.132-32.532 8.132-56.577 0-28.996-.707-48.209-2.121-57.638-.236-1.886-1.65-4.243-4.243-7.072-2.357-3.065-3.535-5.54-3.535-7.426 0-1.179.235-2.475.707-3.89l38.183-14.851c15.084-6.129 25.926-14.027 32.526-23.692 6.364.707 15.674 8.958 27.93 24.753 12.492 15.794 18.738 26.874 18.738 33.239zM564.5 364.201c0 4.192-2.656 9.156-7.967 14.893-5.312 5.736-7.968 10.48-7.968 14.231 0 2.206.553 4.413 1.66 6.619 0 3.31-4.205 4.633-12.615 3.971-3.762-3.309-7.635-4.964-11.619-4.964-3.32 0-4.98.993-4.98 2.979 0 5.074.222 15.555.664 31.441.222 13.017.222 23.497 0 31.44-.221 11.473-.996 21.954-2.324 31.441l17.927 3.972c8.631 1.985 13.058 4.743 13.279 8.273.221 4.413-2.434 9.819-7.967 16.217-5.533 6.399-8.3 11.584-8.3 15.555v5.627c-.442.882-3.209 1.323-8.299 1.323-3.541 0-13.832-4.302-30.874-12.907-16.82-8.825-25.562-14.231-26.226-16.217 5.533-25.373 8.3-53.394 8.3-84.063 0-10.811-.332-21.622-.996-32.433-.886-.662-4.869-1.986-11.951-3.972-4.205-1.323-6.308-4.523-6.308-9.597 0-10.37 2.767-15.555 8.299-15.555 4.427 0 7.083-.221 7.968-.662 2.434-1.324 3.652-4.744 3.652-10.26 0-4.192-1.55-9.818-4.648-16.879-2.877-7.281-4.316-12.907-4.316-16.878 0-2.207 2.767-3.31 8.3-3.31 2.655 0 5.754 1.103 9.295 3.31 3.762 2.206 6.529 3.309 8.299 3.309l11.287-12.907c7.746-8.605 14.497-12.907 20.251-12.907 2.656 0 6.639 2.427 11.951 7.281-.885 4.412-4.537 11.032-10.955 19.857-5.754 7.943-8.632 14.783-8.632 20.519 0 7.281.332 11.915.996 13.9 1.328 4.634 4.759 6.951 10.292 6.951 5.09 0 9.737-3.42 13.942-10.26 4.427-7.06 7.747-10.591 9.96-10.591 2.656 0 5.09 1.324 7.303 3.972 2.213 2.427 3.32 4.854 3.32 7.281zm135.365 66.227c0 1.543-.666 3.307-1.998 5.292-4.882 2.205-8.432 8.489-10.652 18.853-2.219 9.04-6.879 13.561-13.98 13.561-5.77 0-12.65-3.749-20.639-11.246-7.989-7.497-14.313-11.246-18.974-11.246-.887 0-2.663.221-5.326.662-.665 1.323-1.109 2.866-1.331 4.63 0 1.323.111 3.198.333 5.623.222 2.426.333 4.08.333 4.962 0 5.292-2.33 7.938-6.991 7.938-7.767 0-16.422-3.528-25.964-10.585-12.427-9.261-20.306-14.553-23.634-15.876-.666-1.984-.999-3.197-.999-3.638 0-2.425 1.443-5.402 4.327-8.93 2.885-3.528 4.439-6.395 4.661-8.6.887-7.938 1.331-22.05 1.331-42.336 0-16.097-.776-31.091-2.33-44.983a150.61 150.61 0 00-6.657-5.623c-2.663-2.646-3.995-5.182-3.995-7.607 0 .661.777-1.323 2.33-5.954 5.548-1.764 8.988-7.827 10.319-18.191 1.332-9.261 4.772-13.892 10.32-13.892l5.991.993c1.776 3.087 8.1 7.497 18.974 13.23 9.321 4.851 13.981 9.592 13.981 14.222 0 .221-1.664 4.079-4.993 11.576-1.11 2.426-1.664 7.608-1.664 15.546 0 5.953.332 14.884.998 26.791.888 11.907 1.332 19.073 1.332 21.499 0 10.805-1.332 20.507-3.995 29.106 4.882 3.308 9.875 4.962 14.98 4.962 3.106 0 6.213-.772 9.32-2.316-1.331-7.056-1.997-15.104-1.997-24.145 0-4.63.222-11.466.666-20.506.443-9.262.665-16.318.665-21.169 0-6.615-.333-12.679-.998-18.191-7.102-2.646-10.652-6.946-10.652-12.9 0-4.189 2.885-9.15 8.654-14.883 5.992-5.734 8.988-10.695 8.988-14.884a12.41 12.41 0 00-.666-3.969c3.551-3.969 6.991-5.954 10.32-5.954 2.884 0 7.434 2.867 13.647 8.6 7.324 6.835 12.317 10.804 14.98 11.907 6.657 2.866 9.653 5.402 8.987 7.607-.443 2.867-1.886 5.843-4.327 8.93-2.441 3.087-3.772 5.403-3.994 6.946-.888 6.836-1.332 23.263-1.332 49.283 0 23.152.555 36.052 1.664 38.698.444 1.102 2.442 3.528 5.992 7.276 2.663 2.867 3.995 5.844 3.995 8.931zm123.844-89.305c0 4.699-3.528 10.689-10.585 17.97-6.821 7.048-10.232 14.447-10.232 22.199 0 4.228-3.175 6.342-9.526 6.342-7.528 0-12.232-3.523-14.114-10.571-1.646-7.281-4.116-10.922-7.409-10.922-3.529 0-5.293 4.815-5.293 14.446 0 3.289.353 8.222 1.059 14.799.941 6.342 1.411 11.04 1.411 14.094 0 24.665-2.235 39.581-6.704 44.749 1.647 3.523 7.41 6.342 17.289 8.456 8.938 1.879 13.408 5.52 13.408 10.923 0 5.873-2.941 10.101-8.821 12.685-7.762 3.289-12.114 5.403-13.055 6.342-.706.705-1.646 5.168-2.823 13.39-1.176 6.342-3.998 9.513-8.468 9.513-4.234 0-13.172-4.111-26.815-12.332a2906.632 2906.632 0 01-27.874-16.913c-.47-1.175-.705-2.584-.705-4.228 0-2.114 1.411-4.581 4.234-7.4 2.822-3.054 4.469-5.05 4.939-5.99 3.058-6.342 4.587-22.198 4.587-47.567 0-25.84-.706-41.226-2.117-46.159-.47-1.879-3.293-4.58-8.468-8.104-5.175-3.758-7.762-7.047-7.762-9.866 0-2.114 1.294-4.463 3.881-7.047 2.823-2.584 5.881-9.396 9.174-20.436 2.587-8.457 6.233-12.685 10.937-12.685 17.407 0 31.05 7.634 40.929 22.903 4.469-.47 7.998-3.993 10.585-10.571 2.588-6.812 5.528-10.218 8.821-10.218 4.469 0 12.114 2.702 22.934 8.104 11.055 5.403 16.583 10.101 16.583 14.094zm115.198 50.54c.23 5.537-5.409 11.419-16.918 17.647-18.183 10.15-28.771 16.494-31.763 19.031-11.739 8.997-17.609 19.608-17.609 31.834 3.913 2.538 9.322 4.037 16.228 4.498l17.262.692c1.381-1.384 2.532-6.343 3.453-14.878.46-6.921 3.222-10.381 8.286-10.381 8.746-.231 13.235 4.844 13.465 15.225.23 14.763-8.977 29.757-27.621 44.982v2.422c0 8.305-3.107 12.572-9.321 12.803-5.755 0-19.45-4.498-41.086-13.495-21.406-9.227-32.109-15.455-32.109-18.685 0-2.537 1.266-5.536 3.798-8.996 2.532-3.691 3.913-6.574 4.143-8.651.691-4.383.921-14.763.691-31.141v-30.796c0-13.149-.921-23.299-2.762-30.45-.23-1.384-1.381-3.229-3.453-5.536-1.841-2.538-2.762-4.844-2.762-6.92 0-1.154.23-1.961.691-2.423 2.762-3.46 9.091-6.459 18.989-8.996 14.04-3.922 23.477-6.92 28.311-8.997 10.818-4.844 18.989-11.764 24.513-20.761 5.524 0 14.616 10.958 27.275 32.872 11.969 20.761 18.068 33.795 18.299 39.1zm-49.717 7.267c0-3.922-1.151-9.112-3.453-15.571-2.992-7.382-6.214-12.226-9.667-14.533v30.104c0 4.383 1.381 7.843 4.143 10.38 4.834-2.999 7.826-6.459 8.977-10.38zm-647.261 81.727c-2.966 3.414-11.65 7.147-26.052 11.2-11.438 3.201-17.157 8.854-17.157 16.961 0 5.12-.106 8.107-.317 8.96-.848 2.56-3.178 3.841-6.99 3.841-1.271 0-3.071-.214-5.401-.64-2.33-.214-4.024-.321-5.083-.321-4.237 0-6.355 3.094-6.355 9.281 0 5.547 2.542 11.414 7.625 17.6 5.084 6.187 7.625 10.667 7.625 13.441 0 2.987-1.588 5.44-4.765 7.36-3.177 1.92-6.354 2.88-9.532 2.88-7.836 0-15.673-3.2-23.51-9.6a644.5 644.5 0 01-12.391 10.88c-5.083 4.267-9.849 6.401-14.297 6.401-2.965 0-5.824-1.28-8.578-3.841-2.753-2.56-4.13-5.333-4.13-8.32 0-.64.318-1.6.953-2.88.636-1.28.953-2.133.953-2.56 8.896-3.414 14.827-10.347 17.792-20.801 1.694-5.333 2.754-14.827 3.177-28.481l-2.542-4.8c-1.694.427-4.13 2.24-7.307 5.44-2.965 2.987-5.507 4.48-7.625 4.48-2.542 0-4.554-1.28-6.036-3.84-1.695-2.56-2.542-5.12-2.542-7.68 0-8.747 2.542-15.681 7.625-20.801 5.295-5.12 10.59-10.133 15.885-15.04-.211-5.547-.211-12.907 0-22.081.212-11.521.318-18.881.318-22.081 0-2.987-.212-7.467-.635-13.44-.212-5.974-.318-10.241-.318-12.801 0-4.907-2.648-9.173-7.943-12.8-5.295-3.627-7.942-7.361-7.942-11.201l.317-1.6c6.354-1.706 10.061-8 11.12-18.88.847-9.814 5.189-14.721 13.026-14.721 5.507 0 12.179 2.88 20.016 8.64 7.837 5.761 12.391 8.641 13.661 8.641 4.448 0 7.943-2.88 10.485-8.641 2.541-5.973 4.659-8.96 6.354-8.96 5.507 0 12.92 3.307 22.24 9.92 10.166 7.254 17.897 11.414 23.192 12.481 1.907 2.347 2.86 4.587 2.86 6.72 0 1.707-.636 4.16-1.907 7.36-1.27 3.2-1.906 5.654-1.906 7.361l-.318 40.641c-.211 21.761 1.907 40.535 6.355 56.322zm-46.068-94.083c-6.143-5.334-11.861-8.001-17.156-8.001-1.483 0-2.648.107-3.495.32 1.694 22.401 2.541 51.842 2.541 88.324 0 5.12 3.601 7.68 10.803 7.68 1.906 0 3.812-.32 5.718-.96-.212-2.987-.635-11.414-1.271-25.281-.635-10.24-.953-18.561-.953-24.961 0-14.934 1.271-27.308 3.813-37.121z" fill="#000"/>
</svg>
